<svg height="32" viewBox="0 0 32 32" width="32" xmlns="http://www.w3.org/2000/svg"><g fill="none" fill-rule="evenodd"><path d="m0 0h32v32h-32z" fill="#1d1e1f"/><path d="m9.98857143 18.5368421c1.27542857.4105263 2.40457147.9699248 3.33714287 1.6421053.6582857.4781955 1.4171428 1.2135338 1.9108571 1.8586466.5302857.6902255.9462857 1.4300752 1.2891429 2.2781955.1554286.3834586.3931428 1.0827067.3702857 1.0827067-.0045714 0-.4114286-.1984962-.9005714-.4421052-1.5817143-.793985-3.1268572-1.3172933-4.2057143-1.4300752-.1371429-.0135338-.3291429-.0360902-.4297143-.0451128-.2468571-.0270677-1.1154286-.0270677-1.2571429-.0045113-.064.0135339-.20571424.031579-.31999996.0451128-.544.0631579-1.27085714.2887218-1.81485714.5684211-1.70971429.8842105-3.00342857 2.6255639-3.97257143 5.3368421-.11885714.3383458-.23314286.6180451-.24685714.6180451-.01371429 0-.46171429-.4330827-.992-.956391-.53485714-.5278195-1.02857143-1.0240601-1.09714286-1.1007519-.06857143-.0766917-.21942857-.2390977-.33371428-.3609022-.29257143-.3203008-.85942858-.9834587-1.11085715-1.312782l-.21485714-.275188v-3.2661654l.256-.3879699c1.45371429-2.2015038 3.48342857-3.5413534 5.984-3.9518797.70857143-.1127819.89142857-.1263158 1.80571429-.1398496 1.04228571-.0135339 1.216.0090225 1.94285714.243609zm22.01142857-18.5368421v25.6285714l-.1782857.1894737c-.3748572.3969925-.448.4691729-.7588572.7353384-.7954285.681203-1.6182857 1.1233082-2.5142857 1.3488721-.1737143.0451128-.352.0857143-.3885714.0902256-.4434286.0586466-.6217143.0721805-.9051429.081203-.1828571.0045113-.3382857.0090226-.3428571.0045113s-.1645714-.0225564-.3474286-.0360902c-.1874285-.0180451-.352-.0406015-.3657143-.0496241-.0182857-.0045113-.1188571-.0270677-.2331428-.0406015-.3062857-.0406015-1.0605714-.2526316-1.44-.4105263-.768-.3112782-1.4171429-.6631579-2.016-1.0872181-.5897143-.4195488-.736-.5458646-1.344-1.1458646-.6262857-.6135339-.7085714-.7037594-1.1382857-1.2406015-.2742857-.3383459-1.2388572-1.7413534-1.2388572-1.7954887 0-.0180452-.064-.1353384-.1417143-.2661655-.3108571-.5142857-.864-1.6556391-1.2068571-2.4721804-.32-.7759399-.9737143-2.6706767-1.0468571-3.0406015-.0091429-.0496241-.0548572-.2165414-.096-.3654136-.0914286-.3428571-.0777143-.2796992-.2742858-1.1052631-.1782857-.7488722-.192-.793985-.2331428-1.037594-.0411429-.2390977-.3245714-1.0827068-.5668572-1.6917293-1.024-2.54436092-2.2537142-3.9338346-3.7348571-4.21804513-.3428571-.06766917-1.12-.03157895-1.4537143.06315789-1.29371427.36992482-2.50057141 1.17293234-4.02285713 2.66616544-.49828571.4962406-1.17485714 1.2090225-1.42171428 1.5112782-.07314286.0857143-.14171429.1669173-.15542858.1804511-.02742857.0225564-.58057142.681203-.73142857.875188-.03657143.0451128-.12342857.1488722-.18742857.2255639-.384.4601504-1.33942857 1.8225564-1.74171428 2.4857143-.75885715 1.2541353-1.33028572 2.5037594-1.64114286 3.6090225l-.128.4511278v-6.0225563l-.00457143-6.02255644.90514286-.87969925c.49371428-.48270676 1.04685714-1.00150376 1.22057143-1.15037594.17828571-.1443609.352-.29774436.39314285-.33834586.11428572-.10827068.256-.22105263.864-.69924812.28038096-.22055138.52102999-.41258703.58067804-.462044l.01360768-.01164021c.01371428-.01353384.30171428-.22556391.64-.46917293.33828571-.24812031.68114285-.49172933.75885714-.55037594.08228571-.05864662.45257143-.3112782.82285714-.5593985.63085715-.41954887.94628572-.57293233 1.36685715-.65864662.05028571-.00902255.20571428-.0406015.34285714-.07218045.13714286-.02706767.50742857-.05413534.82285714-.05413534.49371429 0 .63542857.01804512 1.02857143.13082707.6994286.19849624 1.1885714.46917293 1.7965714.9924812 1.3485715 1.16390978 2.6057143 3.50977444 3.5108572 6.54135339.0411428.14887214.0868571.29323304.0914285.31578944.0045715.0270677.0548572.1984963.1097143.3834587.1097143.3834586.4022857 1.4977443.4388572 1.6691729.0091428.0631579.0502857.2345865.0868571.3834587.0365714.1488721.0777143.3428571.0914286.4285714.064.3879699.5668571 1.8857143.8685714 2.5939849.032.0766918.1462857.3473685.2514286.6090226.6308571 1.5338346 1.4628571 3.0270677 2.2308571 3.9924812.3565715.4466165 1.0788572 1.1458647 1.4217143 1.3714286.6811429.4556391 1.2754286.6406015 1.9657143.6180451.7177143-.0270677 1.2525714-.2210526 1.9885714-.7172932.8365715-.5639098 2.2308572-2.0932331 2.9302857-3.2165414.9371429-1.5067669 1.5954286-2.9323308 2.0982858-4.5518797.2834285-.8977444.2925714-.9293233.4342857-1.5112782.192-.7804511.32-1.3714286.3931428-1.8045113.0182857-.1127819.0411429-.243609.0502857-.2932331.0091429-.049624.0274286-.14887213.0365715-.22556386.0137143-.07218045.0548571-.34736842.096-.60902256.0411428-.25714285.0822857-.56390977.0914285-.67669173.0137143-.11278195.032-.28421052.0502858-.38345864.0137142-.09924812.032-.23007519.0411428-.29323309.0091429-.06315789.032-.26616541.0457143-.45112782.0137143-.1849624.0365714-.41052631.0457143-.4962406.0039184-.07346938.0212711-.30934479.0376643-.55421644l.00805-.12247529c.0182857-.28421052.0411428-.6.0502857-.69924812.0411428-.46917293.0594286-3.00451127.0182857-3.21203007-.0228571-.13082707-.0548571-.37443609-.0685714-.54135339-.0182857-.16691729-.0411429-.33834586-.0457143-.37443609-.0091429-.03609022-.0274286-.19849624-.0457143-.36090225-.0182857-.16240602-.0411429-.34285714-.0502857-.40601504-.0045714-.06315789-.0274286-.2481203-.0411429-.41503759l-.032-.30676692z" fill="#4c9ebf" fill-rule="nonzero" transform="matrix(1 0 0 -1 0 32.045112)"/></g></svg>