<svg height="180" viewBox="0 0 180 180" width="180" xmlns="http://www.w3.org/2000/svg"><path d="m56.1857143 105.66c7.1742857 2.34 13.5257143 5.528571 18.7714286 9.36 3.7028571 2.725714 7.9714285 6.917143 10.7485714 10.594286 2.9828571 3.934285 5.3228571 8.151428 7.2514286 12.985714.8742857 2.185714 2.2114285 6.171429 2.0828571 6.171429-.0257143 0-2.3142857-1.131429-5.0657143-2.52-8.8971428-4.525715-17.5885714-7.508572-23.6571428-8.151429-.7714286-.077143-1.8514286-.205714-2.4171429-.257143-1.3885714-.154286-6.2742857-.154286-7.0714286-.025714-.36.077143-1.1571428.18-1.8.257143-3.06.36-7.1485714 1.645714-10.2085714 3.24-9.6171429 5.04-16.8942857 14.965714-22.3457143 30.42-.6685714 1.928571-1.3114286 3.522857-1.3885714 3.522857-.0733798 0-2.3571021-2.233609-5.1470183-5.018811l-.9057812-.905837c-2.8214783-2.826472-5.33321555-5.386931-5.69862909-5.801066-.38571428-.437143-1.23428571-1.362858-1.87714285-2.057143-1.64571429-1.825715-4.83428572-5.605715-6.24857143-7.482857l-1.20857143-1.568572v-18.617143l1.44-2.211428c8.17714286-12.548572 19.5942857-20.185715 33.66-22.525715 3.9857143-.642857 5.0142857-.72 10.1571429-.797142 5.8628571-.077143 6.84.051428 10.9285714 1.388571zm123.8142857-105.66v146.082857l-1.002857 1.08c-2.108572 2.262857-2.52 2.674286-4.268572 4.191429-4.474285 3.882857-9.102857 6.402857-14.142857 7.688571-.977143.257143-1.98.488572-2.185714.514286-2.494286.334286-3.497143.411428-5.091429.462857-1.028571.025714-1.902857.051429-1.928571.025714-.025714-.025714-.925714-.128571-1.954286-.205714-1.054285-.102857-1.98-.231429-2.057143-.282857-.102857-.025714-.668571-.154286-1.311428-.231429-1.722857-.231428-5.965714-1.44-8.1-2.34-4.32-1.774285-7.971429-3.78-11.34-6.197143-3.317143-2.391428-4.14-3.111428-7.56-6.531428-3.522857-3.497143-3.985714-4.011429-6.402857-7.071429-1.542857-1.928571-6.968572-9.925714-6.968572-10.234285 0-.102858-.36-.771429-.797143-1.517143-1.748571-2.931429-4.86-9.437143-6.788571-14.091429-1.8-4.422857-5.4771429-15.222857-5.8885714-17.3314284-.0514286-.2828572-.3085715-1.2342857-.54-2.0828572-.5142857-1.9542857-.4371429-1.5942857-1.5428572-6.3-1.0028571-4.2685714-1.08-4.5257143-1.3114285-5.9142857-.2314286-1.3628571-1.8257143-6.1714286-3.1885715-9.6428571-5.76-14.5028572-12.6771428-22.4228572-21.0085714-24.0428572-1.9285714-.3857143-6.3-.18-8.1771429.36-7.2771428 2.1085715-14.0657142 6.6857143-22.6285714 15.1971429-2.8028571 2.8285714-6.6085714 6.8914286-7.9971428 8.6142857-.4114286.4885714-.7971429.9514286-.8742858 1.0285714-.1542857.1285715-3.2657142 3.8828572-4.1142857 4.9885715-.2057143.2571428-.6942857.8485714-1.0542857 1.2857142-2.16 2.6228572-7.5342857 10.3885715-9.79714284 14.1685715-4.26857143 7.1485714-7.48285715 14.2714284-9.23142857 20.5714284l-.72 2.571429v-34.3285717l-.02571429-34.3285714 5.09142857-5.0142858c2.77714286-2.7514285 5.88857143-5.7085714 6.86571433-6.5571428 1.0028571-.8228572 1.98-1.6971429 2.2114285-1.9285714.6428572-.6171429 1.44-1.26 4.86-3.9857143 1.7085715-1.3619048 3.1548501-2.5330512 3.3285231-2.6868195l.0143341-.0131805c.0771428-.0771429 1.6971428-1.2857143 3.6-2.6742857 1.9028571-1.4142858 3.8314285-2.8028572 4.2685714-3.1371429.4628571-.3342857 2.5457143-1.7742857 4.6285714-3.1885714 3.5485715-2.3914286 5.3228572-3.2657143 7.6885715-3.7542857.2828571-.0514286 1.1571428-.2314286 1.9285714-.4114286.7714286-.1542857 2.8542857-.3085714 4.6285714-.3085714 2.7771429 0 3.5742857.1028571 5.7857143.7457142 3.9342857 1.1314286 6.6857143 2.6742858 10.1057143 5.6571429 7.5857143 6.6342857 14.6571428 20.0057143 19.7485714 37.2857143.2314286.8485714.4885714 1.6714286.5142857 1.8.0257143.1542857.3085715 1.1314286.6171429 2.1857143.6171428 2.1857143 2.2628571 8.5371428 2.4685714 9.5142857.0514286.36.2828572 1.3371428.4885714 2.1857143.2057143.8485714.4371429 1.9542857.5142858 2.4428571.36 2.2114286 3.1885714 10.7485714 4.8857142 14.7857143.18.4371429.8228572 1.98 1.4142858 3.4714286 3.5485714 8.7428574 8.2285711 17.2542854 12.5485711 22.7571424 2.005715 2.545715 6.068572 6.531429 7.997143 7.817143 3.831429 2.597143 7.174286 3.651429 11.057143 3.522857 4.037143-.154285 7.045714-1.26 11.185714-4.088571 4.705715-3.214286 12.548572-11.931429 16.482857-18.334286 5.271429-8.5885711 8.974286-16.7142854 11.802858-25.945714 1.594285-5.1171429 1.645714-5.2971429 2.442857-8.6142857 1.08-4.4485714 1.8-7.8171429 2.211428-10.2857143.102857-.6428571.231429-1.3885714.282857-1.6714286.051429-.2828571.154286-.8485714.205715-1.2857143.077143-.4114285.308571-1.98.54-3.4714285.231428-1.4657143.462857-3.2142857.514285-3.8571429.077143-.6428571.18-1.62.282858-2.1857143.077142-.5657143.18-1.3114285.231428-1.6714285.051429-.36.18-1.5171429.257143-2.5714286s.205714-2.34.257143-2.8285714c.025714-.4885715.154286-2.2371429.257143-3.8571429s.231428-3.42.282857-3.9857143c.231428-2.6742857.334286-17.1257143.102857-18.3085714-.128571-.7457143-.308571-2.1342857-.385714-3.0857143l-.04221-.3800533c-.093105-.81823241-.192647-1.5759467-.214933-1.75423241-.051429-.20571429-.154286-1.13142858-.257143-2.05714286-.102857-.92571429-.231429-1.95428572-.282857-2.31428572-.025714-.36-.154286-1.41428571-.231429-2.36571428l-.18-1.74857143z" fill="#010001" transform="matrix(1 0 0 -1 0 180.257142)"/></svg>