<svg height="25" viewBox="0 0 25 25" width="25" xmlns="http://www.w3.org/2000/svg"><g fill="#aaafb6"><path d="m11.796875 0h1.40625v4.375h-1.40625z"/><path d="m11.796875 20.3125h1.40625v4.6875h-1.40625z"/><path d="m20.625 11.796875h4.375v1.40625h-4.375z"/><path d="m0 11.796875h4.6875v1.40625h-4.6875z"/><path d="m18.986032 17.298917h1.312487v3.734339h-1.312487z" transform="matrix(-.70710678 .70710678 -.70710678 -.70710678 47.083933 18.829371)"/><path d="m5.177313 3.479256h1.312487v3.742152h-1.312487z" transform="matrix(-.70710678 .70710678 -.70710678 -.70710678 13.741761 5.00864)"/><path d="m18.982427 3.491018h1.312487v3.734339h-1.312487z" transform="matrix(.70710678 .70710678 -.70710678 .70710678 9.540844 -12.31726)"/><path d="m5.169114 17.291203h1.312487v3.742152h-1.312487z" transform="matrix(.70700677 .70720678 -.70720678 .70700677 15.258484 1.494685)"/><path d="m12.5 18.421875c-3.265625 0-5.921875-2.65625-5.921875-5.921875s2.65625-5.921875 5.921875-5.921875 5.921875 2.65625 5.921875 5.921875-2.65625 5.921875-5.921875 5.921875zm0-10.5234375c-2.5390625 0-4.6015625 2.0625-4.6015625 4.6015625s2.0625 4.6015625 4.6015625 4.6015625 4.6015625-2.0625 4.6015625-4.6015625-2.0625-4.6015625-4.6015625-4.6015625z"/></g></svg>