<svg height="25" viewBox="0 0 23 25" width="23" xmlns="http://www.w3.org/2000/svg"><path d="m20.8227149 18.582229c-.1911315.0106184-.3716446.0106184-.5627761.0106184-3.0899592 0-5.9994053-1.199881-8.1867991-3.3872749-2.18739386-2.1873938-3.38727494-5.0968399-3.38727494-8.18679914 0-1.76265715.39288142-3.46160381 1.12555216-5.00127421.32917088-.67957866.72205228-1.32730207 1.17864428-1.93255182-.8069997.08494734-1.58214411.254842-2.33605169.48844716-4.96941896 1.57152566-8.56906218 6.21177371-8.56906218 11.70149511 0 6.7745497 5.48972138 12.2642711 12.26427117 12.2642711 3.748301 0 7.0931023-1.6777098 9.3442066-4.3216955.509684-.6052498.9768943-1.2635916 1.3591573-1.9644071-.7220523.1805131-1.4653415.2973157-2.2298675.3291709zm-8.4734964 4.2579851c-5.82951072 0-10.56532451-4.7358138-10.56532451-10.5653245 0-4.15180091 2.39976214-7.74082572 5.88260278-9.47162762-.44597349 1.32730207-.67957866 2.73955148-.67957866 4.21551138 0 6.99753654 5.41539249 12.73148144 12.27488959 13.24116544-1.8476045 1.6139994-4.2686035 2.5802753-6.9125892 2.5802753z" fill="#aaafb6"/></svg>