<svg height="153" viewBox="0 0 152 153" width="152" xmlns="http://www.w3.org/2000/svg"><path d="m144.417265 2.06573892c1.461695 0 2.662634.64009825 3.597162 1.9379365.882556 1.22566212 1.525695 3.06133426 1.912836 5.51630459.757984 4.80659619.550281 12.02928939-.611337 21.66894019-2.313016 19.0965604-20.09014 42.1338223-53.5995133 69.0757058-22.1360542 17.84326-36.1016927 34.460097-41.8703799 49.866868-1.2242265 3.269614-2.2058623 6.822782-2.9448571 10.652351.4411191-3.760523 1.1783947-7.381475 2.2345685-10.891887 6.105981-20.294491 23.1394899-37.788961 50.5312288-59.5865699l1.089695-9.2947507c-.003213-24.9442335-5.4970627-42.919585-16.6261855-53.7966953-2.5714883-2.5132562-5.0876035-3.9164838-7.5376176-4.2657141-2.4929644-.3553524-4.9058026.3899448-7.2199617 2.1245911-4.9170239 3.6857005-9.3751921 11.7692218-13.2018194 23.4108563l-.1892391.5792347c-2.9409691 14.0550375-6.6625083 23.0716994-10.874935 28.2643169-2.3404936 2.8851038-4.8376197 4.6020344-7.4380048 5.364929-2.8085069.8239528-5.7445682.5379715-8.7531215-.6264981-19.2838678-12.6433546-30.34549008-26.0531055-33.31017478-40.3339889l13.42401778-25.9464683c-3.69554421 10.1823151.9146176 23.4535123 14.7482477 38.7332538 7.315111 8.0772436 13.570402 11.9093329 18.8487419 10.9180253 2.5443866-.4778529 4.842259-2.0877727 6.9162445-4.8445232 2.1029183-2.7952082 3.9703048-6.7598508 5.6166239-11.9350693 2.2624533-11.6109526 6.0048099-21.4706825 11.0085533-28.8429291 4.8821035-7.1930289 10.966281-12.02220915 18.0440201-13.83077044 3.7024631-.97098446 7.1706122-.87556689 10.4062773.27516752 3.2265669 1.14749867 6.2250009 3.34755364 8.9898789 6.60753102 5.322169 6.2751967 9.788946 16.5035568 13.391796 30.6720479 5.019007-13.6094671 9.428113-23.862289 13.244912-30.7482105 1.965338-3.54568442 3.777424-6.20373287 5.434339-7.97618092 1.738397-1.85961133 3.325149-2.74780386 4.738004-2.74780386zm-9.531035 22.03944778c-.689685.2328417-1.583797 1.278851-2.725699 3.0553944-2.396427 3.7283037-5.733052 10.6659896-9.993278 20.834405.575278 6.5317205.830924 14.339131.612186 23.4238517 7.300163-6.2825876 11.489232-14.0280392 12.639965-23.2363372 1.275081-9.6203457 1.364208-17.1010711.429355-22.6387631-.098453-.5832071-.242834-1.0053103-.962529-1.4385508zm-123.387324-4.7799271c2.898742 5.63111 6.7269797 9.714724 11.4735333 12.2651022 4.7499536 2.5522051 10.4241161 3.5702972 17.0257688 3.0514601l.03142-.0024804.0372757-.0094194c11.670127-3.1622616 19.0954011-9.9875382 22.3792338-20.4590553.0931996-.2971958.1819834-.5938854.2663495-.8900699-.2646407.1490812-.5332956.2995374-.8052263.4494652-9.519898 5.2487537-17.4445071 6.7568854-23.7819862 4.443711-6.33108-2.3108387-11.0413453-8.42878125-14.1967578-18.28827629-.0610514-.19076294-.1208156-.38072343-.1792921-.56988138-.1448971.13478966-.2904093.27323564-.4367548.41289125-4.9234585 4.69839326-8.4352168 8.51874098-10.5383564 11.44632552-1.0779718 1.5005442-1.789375 2.7734978-2.1419691 3.8136636-.3893826 1.1486932-.3429488 2.0312438.0544888 2.6662333.1951197.4250367.394957.8421308.5995483 1.2512481z" fill="none" stroke="#707c80" stroke-width=".75" transform="translate(1 2)"/></svg>