<svg height="151" viewBox="0 0 152 151" width="152" xmlns="http://www.w3.org/2000/svg"><path d="m0 41.7854507 11.8710834-22.9429461c-1.96428433 9.6653263 2.9891152 21.9666505 15.6288369 35.9276773 15.0310037 16.5970248 25.684898 15.2106581 32.4317767-7.3417693-6.1490557 31.0461995-16.0343117 38.4855977-26.8805542 34.2875271-19.0449699-12.4965838-30.06201753-25.7742027-33.0511428-39.930489zm11.0170476-24.3097598c-1.45185882-2.2454799 2.7329125-8.1032534 12.5543141-17.4756909 6.4052583 20.0140594 19.2157751 24.7002782 38.5169578 14.0586563-3.245328 10.348733-10.5900297 17.0851726-22.1194928 20.2093184-13.6645626 1.0739253-23.3151489-4.4909596-28.9517791-16.7922838zm110.7682994 30.4604219c.597823 6.7364396.854036 14.8396929.597823 24.3097599 7.771709-6.4435512 12.212694-14.4491747 13.40834-24.0168712 1.281053-9.6653263 1.366461-17.1828023.427017-22.7476869-.939433-5.5648848-5.807435 1.8549616-14.43318 22.4547982zm-68.290504 102.0638872c6.0979444-20.26778 23.1458201-37.720093 50.526577-59.4974006l1.110249-9.470067c0-25.0907954-5.5512226-43.1522641-16.7390754-54.0867746-11.1878628-10.9345103-21.4362721-1.1715546-29.0371866 22.8453166 4.1847713-23.1382051 14.4331907-39.7352299 28.951779-43.4451531 14.518588-3.80755278 25.364831 9.0795488 32.624125 38.4660457 10.333817-28.2149422 18.105537-42.37122808 23.485954-42.37122808s6.832276 9.56769668 4.526382 28.70308998c-2.305895 19.0377638-20.069811 41.9807099-53.4625744 68.8288386-22.204897 17.8987515-36.2003069 34.5745295-41.9862296 50.0273325z" fill="#707c80" stroke="#707c80" stroke-width=".75" transform="translate(1 1)"/></svg>