<svg height="25" viewBox="0 0 26 25" width="26" xmlns="http://www.w3.org/2000/svg"><path d="m13.0208333.37282609c-6.72309024 0-12.17339406 5.45978261-12.17339406 12.19456521 0 5.3880435 3.48741319 9.9586957 8.32573784 11.5706522.60872396.1119565.83116322-.2652174.83116322-.5869565 0-.2902174-.01085072-1.252174-.01736113-2.2695653-3.38541667.7369566-4.10047743-1.4380434-4.10047743-1.4380434-.55447049-1.4086957-1.35199653-1.7836957-1.35199653-1.7836957-1.10677083-.7565217.08355035-.7413043.08355035-.7413043 1.22178819.0847826 1.86631944 1.2565217 1.86631944 1.2565217 1.08615451 1.8641304 2.85047743 1.325 3.5427517 1.0119565.1106771-.7858695.4253473-1.325.7725695-1.6282608-2.70182294-.3076087-5.54470488-1.3543479-5.54470488-6.027174 0-1.3326087.47526042-2.41847822 1.25217014-3.27282605-.12369792-.30978261-.54361979-1.55.12044271-3.22826087 0 0 1.02105034-.32717391 3.34743923 1.25.9700521-.27173913 2.0117188-.40543478 3.0457899-.40978261 1.0340712.00434783 2.0757379.1402174 3.0479601.41195653 2.3220486-1.57934783 3.3452691-1.25 3.3452691-1.25.6651476 1.67934782.2463108 2.91847826.1215278 3.22717391.7801649.85326087 1.251085 1.94021739 1.251085 3.27282609 0 4.6847826-2.8472222 5.7163043-5.5588107 6.0184783.438368.3782608.8257378 1.1195652.8257378 2.2565217 0 1.6304348-.016276 2.9445652-.016276 3.3467391 0 .325.2213542.7043479.8376736.5847826 4.8339844-1.6152174 8.3181424-6.1847826 8.3181424-11.5706521 0-6.73369569-5.4503039-12.19456526-12.1733941-12.19456526z" fill="#aaafb6"/></svg>