<svg height="23" viewBox="0 0 28 23" width="28" xmlns="http://www.w3.org/2000/svg"><path d="m28.5611505 2.64314516c-.7862497 1.13516129-1.7276925 2.09596774-2.8084352 2.88056452l-.0336564.02318548c.0112188.16198925.0168282.40528226.0168282.72987903-.0037396 1.61-.2468132 3.1625-.6964994 4.62504031l.0299167-.1131451c-.4992358 1.6443145-1.1891909 3.0790322-2.0623862 4.381129l.037396-.0602823c-.9246147 1.3994758-1.9932037 2.6041936-3.2113765 3.6419758l-.0224376.0185484c-1.2826808 1.0693145-2.7841278 1.9318145-4.4220701 2.507742l-.100969.0306048c-1.650096.6009677-3.5554192.9478226-5.54207859.9478226-.04207043 0-.08414086 0-.1252764 0h.00654429c-.03552615 0-.07666168 0-.11873212 0-3.18800403 0-6.155372-.9413307-8.63285314-2.5596774l.05889861.0361693c.39172248.0445161.84514828.0695565 1.30511836.0695565h.0654429-.0037396c.03459125 0 .07666169.0009274.11779722.0009274 2.62426021 0 5.03536355-.9042339 6.9341425-2.4168549l-.02150267.0166936c-2.46719726-.046371-4.54454182-1.6480242-5.28217677-3.8552823l-.01121878-.039879c.3197353.0528629.68995512.0843952 1.06671924.0871774h.00280469c.53008748 0 1.04334678-.0695564 1.53042892-.2003226l-.04113554.0092742c-1.32007674-.2633871-2.44475969-.9589516-3.24409794-1.9290322l-.00747919-.0102016c-.80214295-.937621-1.28922509-2.16181455-1.28922509-3.49915326 0-.02596774 0-.05193549.0009349-.07790323v.00370968-.06955645c.73670005.41919355 1.61363488.67887097 2.54946832.71225806h.01028389c-.76848661-.5128629-1.39019414-1.18616935-1.82585686-1.9744758l-.01495838-.02875c-.43005333-.77439516-.68341083-1.69717742-.68341083-2.67931452 0-1.04427419.28607895-2.02177419.78531478-2.86016129l-.01402348.02596774c1.40234781 1.7055242 3.11975644 3.09850807 5.07182459 4.10568549l.08881537.04173387c1.89036485.98955645 4.1154234 1.61649193 6.4760422 1.72870967l.0355261.00092742c-.0869455-.38487903-.13743-.82725806-.1392998-1.28169354v-.00092742c.0037396-3.10221775 2.5401193-5.6155242 5.6673549-5.6155242 1.6267235 0 3.0935793.67979839 4.1275771 1.76951613l.0028047.00278226c1.3537331-.2633871 2.5569475-.73451613 3.63956-1.38370968l-.0495496.02782258c-.4253788 1.3271371-1.308858 2.40758065-2.4634577 3.08181452l-.0261771.01391129c1.2097587-.13725807 2.3138739-.44423387 3.3366529-.89681452l-.0719872.02875z" fill="#aaafb6" transform="translate(-1)"/></svg>