<svg height="25" viewBox="0 0 24 25" width="24" xmlns="http://www.w3.org/2000/svg"><g fill="none"><path d="m12.75696 10.9970588v-.0377451c-.00768.0127451-.01584.0254902-.024.0377451z" fill="#6a737d"/><path d="m21.97008 0h-20.2176c-.96768 0-1.75248.78235294-1.75248 1.74656863v20.88872547c0 .9637255.7848 1.7460784 1.75248 1.7460784h20.2176c.96912 0 1.75392-.7828431 1.75392-1.7460784v-20.88872547c0-.96470588-.78528-1.74656863-1.75392-1.74656863zm-14.7792 20.4102941h-3.5832v-11.00931371h3.5832zm-1.79136-12.51323528h-.024c-1.20192 0-1.97952-.84558823-1.97952-1.90196078 0-1.07990196.8016-1.90196079 2.02704-1.90196079 1.22592 0 1.98.82205883 2.004 1.90196079 0 1.05637255-.77856 1.90196078-2.02752 1.90196078zm14.71248 12.51323528h-3.5832v-5.8911765c0-1.4794117-.5184-2.4892156-1.81488-2.4892156-.98976 0-1.5792.6808823-1.83888 1.3387255-.09456.2348039-.1176.5632352-.1176.892647v6.1485294h-3.5832s.04704-9.977451 0-11.0093137h3.5832v1.5583333c.47616-.75 1.32768-1.81813723 3.22992-1.81813723 2.35728 0 4.12512 1.57401963 4.12512 4.95588233v6.3137255z" fill="#aaafb6"/></g></svg>