<svg height="25" viewBox="0 0 22 25" width="22" xmlns="http://www.w3.org/2000/svg"><path d="m9.32135417 9.91091314c-.103125.18374166-1.44375 2.47216036-4.01614584 6.87639196-.28072916.4621381-.61875.6959911-1.0140625.6959911h-3.7296875c-.44114583 0-.69322916-.4175946-.48697916-.8017817l3.953125-6.75389757c.01145833 0 .01145833-.00556793 0-.01670379l-2.51510417-4.20935412c-.24635417-.43429844.0171875-.78507795.48697917-.78507795h3.7296875c.41822916 0 .76197916.22828508 1.03125.6792873zm12.59843753-9.12583519-8.25 14.08685965v.0167038l5.2479166 9.2761693c.2234375.3953229.0114584.7850779-.4869791.7850779h-3.7354167c-.4354167 0-.7791667-.2227171-1.03125-.6792873l-5.29375-9.3819599c.1890625-.3229398 2.9505208-5.05567926 8.2958333-14.20935409.2635417-.45100223.5958334-.67928731 1.0026042-.67928731h3.7640625c.4583333 0 .7046875.37305123.4869792.78507795z" fill="#aaafb6"/></svg>